<?xml version="1.0" encoding="UTF-8"?>
<svg width="460px" height="107px" viewBox="0 0 460 107" version="1.1" xmlns="http://www.w3.org/2000/svg" xmlns:xlink="http://www.w3.org/1999/xlink">
    <!-- Generator: Sketch 46.1 (44463) - http://www.bohemiancoding.com/sketch -->
    <title>Benesse</title>
    <desc>Created with Sketch.</desc>
    <defs>
        <polygon id="path-1" points="57.1039497 71 0.3479 71 0.3479 0.5653 57.1039497 0.5653"></polygon>
    </defs>
    <g id="Page-1" stroke="none" stroke-width="1" fill="none" fill-rule="evenodd">
        <g id="Benesse">
            <path d="M37.0884,10.2367 C41.8384,12.0557 46.3234,14.5387 49.9524,16.9907 C53.7514,18.5597 59.6144,20.9777 59.6114,20.8597 C58.5664,26.3957 57.5484,29.5117 56.0054,33.8807 C54.8784,37.0747 52.7114,43.7577 51.8304,47.6057 C53.5254,49.8837 56.9254,54.0237 56.9254,54.1387 C59.9414,58.4137 62.8904,68.5127 62.0714,74.5067 C63.9734,81.0927 71.2734,89.6007 86.1764,94.2407 C85.0464,95.1667 75.9044,103.5517 75.7774,103.4307 C65.9524,92.1237 56.7244,85.2027 54.2974,81.1827 C53.8494,74.2937 53.1964,67.2867 52.0024,61.2477 C50.6154,59.2967 48.8674,56.2697 48.8674,56.2697 L45.5634,70.3137 L21.1834,103.9707 C21.1834,103.9707 2.4264,94.1777 2.3814,94.1207 C7.2774,91.3227 13.2764,89.6457 17.5974,87.0867 C21.4354,81.2457 26.7684,75.3317 32.3834,70.2157 C35.1534,66.5817 36.9744,63.9657 39.1304,61.1967 C39.7644,55.8817 44.3454,35.1907 44.9644,29.3477 C39.2324,33.3987 30.6034,36.0817 22.1854,36.1537 C13.7694,36.2287 7.4694,35.1067 0.0004,32.5427 C0.0004,32.5427 1.2264,28.2607 1.3444,28.0317 C12.4084,29.9097 25.6544,27.0757 34.7054,21.4187 C24.8044,19.7797 14.2884,15.0937 5.8814,4.8987 C5.9424,4.8987 5.4924,0.0007 5.4924,0.0007 C5.4924,0.0007 12.1714,2.6327 12.1104,2.5227 C19.3834,8.3257 28.9394,9.6217 37.0884,10.2367" id="Fill-1" fill="#231F20"></path>
            <path d="M55.0679,9.1718 C55.5429,6.6418 56.7729,4.4268 58.5839,3.8038 C60.6349,3.0968 62.4369,3.7628 63.6739,5.9988 C62.9719,8.2138 62.0489,10.9298 60.7329,12.7318 C59.4999,13.1608 58.4759,13.4108 57.3219,13.0998 C56.4149,12.8548 55.4749,10.6778 55.0679,9.1718" id="Fill-3" fill="#231F20"></path>
            <path d="M84.73,29.5707 C84.593,28.0237 85.672,25.7677 87.053,25.4347 C88.433,25.0927 89.682,25.7987 90.441,26.6877 C91.21,27.5207 91.221,29.0397 90.996,30.0287 C90.25,30.6557 89.878,30.9747 88.887,31.4687 L86.986,31.4937 C85.897,30.9067 85.284,30.3397 84.73,29.5707" id="Fill-5" fill="#231F20"></path>
            <g id="Group-9" transform="translate(57.000000, 35.247000)">
                <mask id="mask-2" fill="white">
                    <use xlink:href="#path-1"></use>
                </mask>
                <g id="Clip-8"></g>
                <path d="M16.6519,2.4653 C19.3069,1.5173 21.9739,1.0633 25.0119,1.2183 C25.6269,1.0843 27.0679,0.6463 27.0269,0.5653 C33.3099,0.7793 40.3389,2.6753 46.5499,7.0303 C52.7019,11.3653 59.1709,20.8713 56.4749,34.2833 C50.4029,18.7213 41.6569,11.4263 34.3989,8.3503 C34.1829,8.1073 33.2389,7.3103 33.2389,7.3103 C33.2389,7.3103 32.9699,9.4443 32.9349,9.8953 C34.7229,17.4953 35.2759,23.0173 36.0919,29.8573 C36.6039,31.3393 39.5819,37.1223 39.5819,37.1223 C39.5819,37.1223 43.8409,43.2263 45.4619,46.0343 C47.3139,49.1763 52.8719,59.4683 55.3449,63.7763 C52.8969,64.7013 43.5559,68.0883 43.5559,68.0883 L39.1099,54.6373 C39.1099,54.6373 34.0509,42.5513 32.6369,39.4983 C30.7779,33.8173 29.0039,28.0303 27.4339,24.0843 C27.4339,24.0843 24.1549,24.4803 24.1089,24.5273 C24.6739,27.6253 24.5059,29.8013 23.4349,33.4643 C22.2139,37.6323 17.8129,44.2763 13.9779,49.8393 C13.8909,53.0413 13.4699,58.9613 13.3309,61.6183 C12.2539,62.9653 11.1559,64.9533 11.1559,64.9533 L3.8799,71.0003 C4.5719,56.3373 7.4819,48.5683 11.6419,40.2713 C16.4599,35.6713 20.1039,31.3013 18.9579,25.2473 C16.4349,19.9453 15.7119,14.8803 15.3419,9.6463 C13.4289,14.4403 12.4219,21.1113 12.1759,25.5883 C9.0169,29.6913 6.8429,35.5363 5.3099,40.2713 C5.3389,40.2693 0.3479,36.8763 0.3479,36.8763 C1.5269,28.8603 3.2979,23.5793 4.9689,19.1043 C8.3979,12.7543 13.6189,5.6473 16.6519,2.4653" id="Fill-7" fill="#231F20" mask="url(#mask-2)"></path>
            </g>
            <path d="M129.4468,68.5312 L128.8748,67.0662 C133.5548,62.7012 142.2228,57.3372 145.9038,55.4322 C147.2428,53.8362 147.2688,51.1202 147.3898,49.7772 C149.9578,48.9232 152.8818,48.5902 154.9608,48.5202 C155.1178,51.5452 155.1178,57.3062 150.3078,59.8772 C146.7238,65.0812 140.7498,68.9292 129.4468,68.5312" id="Fill-10" fill="#231F20"></path>
            <path d="M121.0664,68.7909 L128.2904,67.2009 C127.9604,70.9179 127.8104,72.9289 127.8574,74.4019 C127.8854,75.8859 127.7654,78.1179 127.5584,79.9789 C127.5264,79.9469 153.3854,82.4049 153.3854,82.4049 C153.3854,82.4049 156.4794,81.7449 158.2204,81.0639 C158.6354,82.5399 160.1574,87.3259 160.1574,87.3259 L154.2064,87.7529 C147.4484,85.1209 142.2234,85.0129 138.6734,85.2719 C135.4304,86.1769 132.2214,86.6839 128.3274,86.9339 C125.1844,88.9479 120.4224,91.4989 116.4404,92.5489 C112.9724,92.8269 110.5544,93.0499 109.2524,93.1949 C107.9604,93.3419 105.2574,93.9899 104.2764,94.1369 C104.3134,92.0419 104.2764,88.9889 104.2764,88.9889 C104.2764,88.9889 105.5034,88.9889 106.8664,88.8849 C108.2524,88.7719 114.4394,87.7249 116.6224,86.9659 C120.1184,84.7059 123.2704,83.4129 126.1524,82.0369 C126.0734,81.5279 125.9664,80.5989 125.9664,80.5989 L124.5934,80.8419 C124.5934,80.8419 122.8284,77.5349 122.1374,75.6299 C121.4574,73.7219 121.1714,72.4959 120.9164,71.0959 C120.5254,70.9179 117.5614,69.5449 117.5614,69.5449 C113.5544,69.8659 110.7314,70.2599 108.9114,71.3159 C107.7034,72.5569 104.5334,76.7489 104.5334,76.7489 C103.5654,74.4019 104.5334,69.9759 105.4354,68.0309 C106.3794,65.9419 110.1644,63.4529 112.6854,63.6019 C116.2034,63.8249 117.7414,64.8729 121.0664,68.7909" id="Fill-12" fill="#231F20"></path>
            <path d="M124.2358,64.579 L122.9308,64.197 L121.0448,60.676 C121.5768,58.804 122.7298,58.512 123.8618,58.526 C124.9998,58.526 125.9768,59.644 126.1528,60.574 C126.3428,61.477 126.3078,62.145 126.1978,62.724 C125.7098,63.596 125.1248,64.06 124.2358,64.579" id="Fill-14" fill="#231F20"></path>
            <path d="M244.6436,67.4042 C244.6436,67.4312 246.3406,63.0412 246.3406,63.0412 C249.8236,63.2832 253.1906,63.3902 256.3406,63.1232 C256.3406,55.0992 253.8366,49.8832 249.1166,49.8832 C245.4016,49.8832 241.4596,54.0082 241.4596,64.8962 C241.4596,73.7202 245.9636,84.2892 256.4346,84.2892 C260.0596,84.2892 262.5986,83.3882 264.9636,82.0082 L263.7706,86.5272 C263.7706,86.5272 258.9856,89.7872 252.0576,89.7872 C239.3096,89.7872 231.2686,80.8322 231.2686,67.6642 C231.2686,54.8382 240.7786,46.4672 250.1516,46.4672 C260.6646,46.4672 267.6066,55.4202 267.6066,67.4042 C264.1706,67.2592 260.3996,67.1742 256.8706,67.1742 C252.9936,67.1742 249.2626,67.2952 244.6436,67.4042" id="Fill-16" fill="#231F20"></path>
            <path d="M269.8545,53.0312 C269.8545,53.0702 271.0535,49.9082 271.0535,49.9082 C275.3345,49.6332 281.7395,48.3422 285.6025,47.0762 C285.4205,49.5112 285.3155,50.4292 285.3155,53.0312 C288.8425,49.9162 293.1245,46.7442 297.8215,46.7442 C302.8645,46.7442 309.1065,50.1912 308.7235,60.8652 C308.5105,67.2422 308.4015,74.3432 308.4015,80.0272 C308.4015,83.7612 310.2565,85.8552 314.6885,86.0762 C314.7605,86.1052 313.5775,88.9902 313.5775,88.9902 C309.0635,88.6112 302.6905,88.5862 298.7645,88.9862 C298.7645,82.2652 298.9695,72.1422 298.9695,64.2172 C298.9695,58.3692 298.4675,53.4822 292.6555,53.6762 C289.1945,53.8062 287.0085,55.8182 285.4205,57.9682 C285.1595,65.2502 285.1595,75.1232 285.3155,81.6762 C285.3775,84.2602 286.7565,85.6932 290.6965,86.0762 C290.6705,86.0762 289.5065,88.9902 289.5065,88.9902 C283.6085,88.5642 275.8335,88.6112 270.3775,88.9512 L269.8295,86.0022 C273.4175,85.5252 275.1785,84.4082 275.5085,81.6762 C275.9715,77.9942 276.1765,72.0862 276.1765,66.6312 C276.1765,60.2422 276.0105,57.2602 275.4485,55.6662 C274.8525,53.9392 272.8835,52.8592 269.8545,53.0312" id="Fill-18" fill="#231F20"></path>
            <path d="M381.4307,47.121 L381.4307,57.662 L378.6627,58.652 C377.5167,53.205 374.6027,49.719 369.4857,49.719 C364.3527,49.719 362.6987,53.297 362.6987,55.623 C362.6987,57.818 363.7527,59.906 366.7807,61.014 C369.7547,62.101 375.0207,64.041 377.5737,65.096 C380.5987,66.355 384.8977,69.541 384.8977,75.781 C384.8977,82.113 379.7197,89.937 366.8057,89.937 C363.3777,89.937 358.0247,89.262 353.8857,89.262 L353.8857,76.707 L356.9227,75.609 C357.4717,81.297 361.2607,86.527 367.7077,86.527 C374.1457,86.527 375.6477,81.676 375.6477,79.535 C375.6477,76.93 374.0167,75.127 371.2997,73.844 C368.2527,72.422 362.4367,70.488 359.5577,68.789 C356.7017,67.078 354.2707,64.041 354.2707,59.324 C354.2707,54.346 358.1807,46.539 370.4517,46.539 C373.8697,46.539 378.1927,47.183 381.4307,47.121" id="Fill-20" fill="#231F20"></path>
            <path d="M327.5088,67.4042 C327.5148,67.4312 329.1908,63.0412 329.1908,63.0412 C332.6628,63.2832 336.0228,63.3902 339.1908,63.1232 C339.1908,55.0992 336.7158,49.8832 331.9718,49.8832 C328.2428,49.8832 324.3228,54.0082 324.3228,64.8962 C324.3228,73.7202 328.8198,84.2892 339.2898,84.2892 C342.9348,84.2892 345.4638,83.3882 347.8568,82.0082 L346.6138,86.5272 C346.6138,86.5272 341.8118,89.7872 334.9068,89.7872 C322.1608,89.7872 314.1138,80.8322 314.1138,67.6642 C314.1138,54.8382 323.6238,46.4672 332.9948,46.4672 C343.5128,46.4672 350.4538,55.4202 350.4538,67.4042 C347.0088,67.2592 343.2568,67.1742 339.7378,67.1742 C335.8858,67.1742 332.1418,67.2952 327.5088,67.4042" id="Fill-22" fill="#231F20"></path>
            <path d="M416.0947,47.121 L416.0947,57.662 L413.3567,58.652 C412.1907,53.205 409.2727,49.719 404.1647,49.719 C399.0397,49.719 397.3997,53.297 397.3997,55.623 C397.3997,57.818 398.4247,59.906 401.4657,61.014 C404.4367,62.101 409.7197,64.041 412.2487,65.096 C415.2917,66.355 419.5767,69.541 419.5767,75.781 C419.5767,82.113 414.4077,89.937 401.5227,89.937 C398.0357,89.937 392.7177,89.262 388.5617,89.262 L388.5617,76.707 L391.5927,75.609 C392.1557,81.297 395.9557,86.527 402.3997,86.527 C408.8267,86.527 410.3487,81.676 410.3487,79.535 C410.3487,76.93 408.6807,75.127 405.9907,73.844 C402.9447,72.422 397.0987,70.488 394.2277,68.789 C391.3857,67.078 388.9597,64.041 388.9597,59.324 C388.9597,54.346 392.8797,46.539 405.1607,46.539 C408.5677,46.539 412.8657,47.183 416.0947,47.121" id="Fill-24" fill="#231F20"></path>
            <path d="M436.2334,67.4042 C436.2334,67.4312 437.9384,63.0412 437.9384,63.0412 C441.3914,63.2832 444.7994,63.3902 447.9284,63.1232 C447.9284,55.0992 445.4284,49.8832 440.7134,49.8832 C436.9734,49.8832 433.0554,54.0082 433.0554,64.8962 C433.0554,73.7202 437.5854,84.2892 448.0284,84.2892 C451.6744,84.2892 454.2064,83.3882 456.5814,82.0082 L455.3584,86.5272 C455.3584,86.5272 450.5554,89.7872 443.6594,89.7872 C430.8954,89.7872 422.8704,80.8322 422.8704,67.6642 C422.8704,54.8382 432.3794,46.4672 441.7354,46.4672 C452.2684,46.4672 459.2134,55.4202 459.2134,67.4042 C455.7584,67.2592 452.0014,67.1742 448.4654,67.1742 C444.5904,67.1742 440.8604,67.2952 436.2334,67.4042" id="Fill-26" fill="#231F20"></path>
            <path d="M177.04,37.0663 L178.569,33.3373 C184.294,33.3373 184.675,33.5863 188.411,33.5863 C192.171,33.5863 202.599,33.0843 206.436,33.0843 C217.563,33.0843 224.38,36.3303 224.38,44.7673 C224.38,50.9803 216.409,55.3903 212.247,57.2073 L212.292,57.4663 C220.202,58.6913 227.808,62.2813 227.808,71.6563 C227.808,81.5053 218.214,89.4293 203.675,89.2813 C197.739,89.2013 193.464,88.8633 188.251,88.8633 C183.028,88.8633 176.513,88.9903 176.513,88.9903 L175.749,85.6933 C180.212,85.3693 184.341,84.1523 184.827,77.6403 C185.337,71.1583 185.436,64.2163 185.436,58.1913 C185.436,52.1953 185.194,47.1873 185.079,43.9493 C184.827,39.2013 183.581,36.8303 177.04,37.0663 M201.921,36.4253 C206.436,36.3223 212.216,38.4103 212.247,45.0433 C212.263,50.1273 207.677,56.0453 199.419,57.3393 L200.718,60.7753 C207.759,59.1993 215.944,62.2113 215.944,72.1253 C215.944,82.2593 207.442,85.9163 203.399,85.9163 C199.366,85.9163 196.405,84.4083 196.163,79.8393 C195.892,75.3023 195.813,67.7443 195.813,58.6193 C195.813,49.4863 196.06,43.7593 196.233,40.6523 C196.452,36.9723 197.763,36.5453 201.921,36.4253" id="Fill-28" fill="#231F20"></path>
        </g>
    </g>
</svg>